<svg fill="none" viewBox="0 0 124 128">
  <path fill="rgb(223 223 223 / 70%)"
    d="M86.2746 64.4978c-9.6982 13.7417.1294 32.7062 16.9484 32.7062h5.412c8.468 0 15.333 6.865 15.333 15.333 0 8.469-6.865 15.334-15.333 15.334H10.0174c-5.5323 0-10.0172-4.485-10.0172-10.017 0-2.069.6403-4.086 1.833-5.776l34.9382-49.5053c9.4609-13.4055-.1263-31.906-16.5341-31.906h-4.9037c-8.4684 0-15.3334-6.865-15.3334-15.3334C.0002 6.865 6.8652 0 15.3336 0h97.1304c5.532 0 10.017 4.4848 10.017 10.0171 0 2.0684-.64 4.0861-1.833 5.776L86.2746 64.4978z" />
  <g filter="url(#filter0_b)">
    <path fill="#fff"
      d="M63.1919 97.204h45.4421c8.469 0 15.334 6.865 15.334 15.333 0 8.469-6.865 15.334-15.334 15.334H10.0171C4.4848 127.871 0 123.386 0 117.854c0-2.069.6403-4.087 1.833-5.776l57.4559-81.4113H15.3333C6.865 30.6667 0 23.8017 0 15.3333 0 6.865 6.865 0 15.3333 0h97.1307c5.532 0 10.017 4.4848 10.017 10.0171 0 2.0684-.64 4.0861-1.833 5.776L63.1919 97.204z" />
  </g>
  <defs>
    <filter id="filter0_b" width="154.271" height="158.174" x="-15.1515" y="-15.1515" color-interpolation-filters="sRGB"
      filterUnits="userSpaceOnUse">
      <feFlood flood-opacity="0" result="BackgroundImageFix" />
      <feGaussianBlur in="BackgroundImage" stdDeviation="7.5758" />
      <feComposite in2="SourceAlpha" operator="in" result="effect1_backgroundBlur" />
      <feBlend in="SourceGraphic" in2="effect1_backgroundBlur" result="shape" />
    </filter>
  </defs>
</svg>